Coordinates
version=1
nRows=16
nColumns=40
inDegrees=yes

Units are S.I. units (second, meters, Newtons, ...)
Angles are in degrees.

endheader
time	pelvis_tilt	pelvis_list	pelvis_rotation	pelvis_tx	pelvis_ty	pelvis_tz	hip_flexion_r	hip_adduction_r	hip_rotation_r	knee_angle_r	knee_angle_r_beta	ankle_angle_r	subtalar_angle_r	mtp_angle_r	hip_flexion_l	hip_adduction_l	hip_rotation_l	knee_angle_l	knee_angle_l_beta	ankle_angle_l	subtalar_angle_l	mtp_angle_l	lumbar_extension	lumbar_bending	lumbar_rotation	arm_flex_r	arm_add_r	arm_rot_r	elbow_flex_r	pro_sup_r	wrist_flex_r	wrist_dev_r	arm_flex_l	arm_add_l	arm_rot_l	elbow_flex_l	pro_sup_l	wrist_flex_l	wrist_dev_l
     30.57750000	     -3.89975001	     -6.41366266	     -6.12905756	      1.11346481	      0.91338577	      0.48865719	     25.16868405	      3.30250316	    -12.03270566	     23.24583208	     23.24583208	      3.16654605	     -0.97160198	     -1.48432486	      2.94603380	    -14.65670699	     -8.49584864	     42.71738419	     42.71738419	      8.79279991	    -16.76872807	    -14.06703342	    -11.30518311	      7.03880327	      1.95842766	    -12.46768732	    -12.59029381	    -13.61082016	     21.26669953	     47.31388520	      0.00000000	      0.00000000	     14.86377624	    -14.29089526	    -11.42050053	     99.07145039	     48.37179929	      0.00000000	      0.00000000
     30.58828571	     -4.04684791	     -6.63242396	     -6.09424285	      1.11306103	      0.91484047	      0.49217469	     24.44883080	      3.71502337	    -12.34415223	     22.80765078	     22.80765078	      3.68854481	     -0.51612171	     -1.55628382	      5.07580622	    -15.46072205	     -7.47905864	     46.61094465	     46.61094465	      6.57041157	    -17.45960086	    -13.26732590	    -11.40632300	      7.14325563	      1.97382347	    -10.97246975	    -12.37974715	    -13.54183410	     22.10563008	     47.27962942	      0.00000000	      0.00000000	     13.74707901	    -13.88983559	    -11.09258619	     97.86225074	     48.32426719	      0.00000000	      0.00000000
     30.59907143	     -4.21854988	     -6.64084280	     -6.05595794	      1.11246499	      0.91627999	      0.49525806	     23.82008944	      3.81754644	    -12.82946455	     22.46256022	     22.46256022	      4.30386929	      0.45902105	     -1.45131005	      7.51157281	    -15.74943086	     -6.05777539	     50.77261331	     50.77261331	      6.29088381	    -17.43110113	     -7.31657252	    -11.40253184	      7.05849966	      2.07917819	     -9.93914368	    -12.19857899	    -13.20853314	     24.23441408	     47.12542670	      0.00000000	      0.00000000	     13.06311152	    -13.24927333	    -10.87841625	     95.30981575	     48.27868530	      0.00000000	      0.00000000
     30.60985714	     -4.38105316	     -6.64504706	     -5.99844113	      1.11177678	      0.91766982	      0.49810978	     23.13037450	      3.92058690	    -13.29877606	     21.99848626	     21.99848626	      4.75600362	      1.38646290	     -1.54776013	      9.88913927	    -15.99481984	     -4.76463933	     54.50531103	     54.50531103	      5.56086530	    -17.61271765	     -2.99896206	    -11.42733126	      6.99071363	      2.18848835	     -8.73908375	    -12.06908318	    -12.85374540	     26.08296530	     46.98689490	      0.00000000	      0.00000000	     12.38150106	    -12.66671693	    -10.48302507	     92.75097985	     48.21718100	      0.00000000	      0.00000000
     30.62064286	     -4.56918672	     -6.69307343	     -5.91898653	      1.11097185	      0.91895966	      0.50084154	     22.42468569	      4.11232717	    -13.65354865	     21.41444862	     21.41444862	      5.10221754	      2.08681225	     -1.62787126	     12.16201183	    -16.34479105	     -3.70895878	     57.67152137	     57.67152137	      4.02884327	    -18.00348861	     -1.85487870	    -11.43433312	      6.94466453	      1.95081911	     -6.98936708	    -11.92747105	    -12.79551713	     27.21373530	     46.94140586	      0.00000000	      0.00000000	     11.27299533	    -12.40892823	    -10.15765689	     90.75525647	     48.15404917	      0.00000000	      0.00000000
     30.63142857	     -4.60645016	     -6.49717053	     -5.85599202	      1.11008638	      0.92047922	      0.50304065	     21.66883592	      3.89832997	    -14.29030541	     21.03837149	     21.03837149	      5.50700419	      3.45635060	     -1.85333591	     14.33187006	    -16.19578693	     -2.65227113	     60.70246310	     60.70246310	      4.19536169	    -18.08095411	      2.84086977	    -11.51243978	      6.72565073	      2.01135469	     -5.58950111	    -11.83815051	    -12.56276510	     29.29210882	     46.82191971	      0.00000000	      0.00000000	     11.14929882	    -11.62692127	    -10.11147801	     86.39051113	     48.07289232	      0.00000000	      0.00000000
     30.64221429	     -4.76520807	     -6.44257049	     -5.78622611	      1.10899374	      0.92174795	      0.50517905	     20.99040844	      3.94145598	    -14.61191323	     20.50942948	     20.50942948	      5.83420289	      4.24091678	     -1.78990805	     16.64180140	    -16.23918273	     -1.69921367	     63.44073144	     63.44073144	      4.77027709	    -18.01217485	      7.21678835	    -11.55417512	      6.64645744	      2.64178313	     -4.76460883	    -11.90808581	    -12.24737613	     31.93736322	     46.64899314	      0.00000000	      0.00000000	     11.10318505	    -10.92769698	     -9.10509509	     82.81684216	     47.94950566	      0.00000000	      0.00000000
     30.65300000	     -4.90593556	     -6.41350931	     -5.65342342	      1.10781503	      0.92301154	      0.50716710	     20.26949834	      4.01003810	    -14.95026326	     19.91528343	     19.91528343	      6.08099289	      4.90043800	     -1.79286114	     18.74688637	    -16.39181684	     -0.99528899	     65.50323739	     65.50323739	      4.28163708	    -18.33310554	      7.57427726	    -11.61166032	      6.61292075	      2.31119123	     -2.69110374	    -11.78001685	    -12.19589047	     33.20049920	     46.60256189	      0.00000000	      0.00000000	     10.09654395	    -10.69877646	     -8.82213982	     80.35283911	     47.87920123	      0.00000000	      0.00000000
     30.66378571	     -4.86215913	     -6.22726318	     -5.58002118	      1.10658505	      0.92457158	      0.50896008	     19.43943832	      3.83657217	    -15.38441930	     19.48176845	     19.48176845	      6.39155943	      5.98939256	     -1.83860281	     20.55882865	    -16.33822578	     -0.53436564	     67.16664884	     67.16664884	      4.58314261	    -18.45423342	      9.10079416	    -11.80134757	      6.35989436	      2.42755250	     -0.90987188	    -11.78370783	    -11.88881810	     34.90918583	     46.50942688	      0.00000000	      0.00000000	     10.26133733	     -9.98065635	     -8.83688594	     75.23474440	     47.78815390	      0.00000000	      0.00000000
     30.67457143	     -4.96389717	     -6.20979694	     -5.44129033	      1.10512288	      0.92582139	      0.51066563	     18.70002867	      3.91931365	    -15.65410225	     18.87364302	     18.87364302	      6.60606505	      6.59107716	     -1.74026902	     22.55192430	    -16.48740834	     -0.05024996	     68.49717747	     68.49717747	      4.92511021	    -18.58252428	      9.81913492	    -11.88061664	      6.31845627	      2.34906043	      1.04761348	    -11.74628659	    -11.69668360	     36.54382980	     46.43472759	      0.00000000	      0.00000000	      9.85121003	     -9.65624323	     -8.51543644	     71.50991273	     47.69696136	      0.00000000	      0.00000000
     30.68535714	     -4.97505163	     -6.10763430	     -5.32903079	      1.10360938	      0.92712121	      0.51212329	     17.97293703	      3.85656613	    -15.93342814	     18.47332434	     18.47332434	      6.93972688	      7.28225295	     -1.63555878	     24.35684098	    -16.50791955	      0.27208494	     69.41548003	     69.41548003	      5.71365863	    -18.62818584	     11.14879739	    -12.02844595	      6.23962914	      3.13041553	      2.42604335	    -12.09488156	    -11.15385786	     38.51172097	     46.31305662	      0.00000000	      0.00000000	     10.65605748	     -8.62735502	     -8.14689639	     65.72304004	     47.57524065	      0.00000000	      0.00000000
     30.69614286	     -5.06621692	     -6.09058655	     -5.16689556	      1.10191009	      0.92822271	      0.51350966	     17.28630436	      3.92893660	    -16.13368047	     17.94657027	     17.94657027	      7.19573849	      7.70665145	     -1.44670565	     26.21583308	    -16.62863223	      0.58336104	     69.91445777	     69.91445777	      6.32230455	    -18.64930948	     11.70794181	    -12.12181312	      6.24514652	      3.46056527	      4.09109781	    -12.35331417	    -10.72914346	     40.62345754	     46.19503056	      0.00000000	      0.00000000	     10.77753101	     -8.10565175	     -7.58570542	     61.07078086	     47.45263049	      0.00000000	      0.00000000
     30.70692857	     -5.13468769	     -6.07684534	     -4.99239404	      1.10011159	      0.92924091	      0.51475553	     16.60628607	      3.99798335	    -16.31702918	     17.45752681	     17.45752681	      7.44872895	      8.07810620	     -1.32636215	     27.94296049	    -16.72784321	      0.82875334	     69.94860518	     69.94860518	      6.81510408	    -18.64792193	     11.81143245	    -12.23365589	      6.25817467	      3.60310321	      6.10561244	    -12.58617533	    -10.25182362	     42.38530434	     46.09515084	      0.00000000	      0.00000000	     10.74260289	     -7.70165569	     -7.21912615	     56.63670825	     47.34735916	      0.00000000	      0.00000000
     30.71771429	     -5.20271937	     -6.05932629	     -4.82352410	      1.09819432	      0.93013860	      0.51584302	     15.95128965	      4.06472212	    -16.44137167	     16.99135250	     16.99135250	      7.70009176	      8.34979297	     -1.24109917	     29.56635679	    -16.78835319	      1.01983211	     69.55302816	     69.55302816	      7.21008352	    -18.62128186	     11.71888322	    -12.34955415	      6.26886700	      3.64245620	      8.28358795	    -12.81361695	     -9.70979395	     44.00828565	     46.00369071	      0.00000000	      0.00000000	     10.55801906	     -7.37762651	     -6.94534333	     52.43830270	     47.25261827	      0.00000000	      0.00000000
     30.72850000	     -5.30707339	     -6.09116766	     -4.64046977	      1.09622042	      0.93084510	      0.51693233	     15.32994551	      4.20764171	    -16.54045253	     16.50630277	     16.50630277	      7.94130067	      8.51564391	     -1.19204531	     31.12861403	    -16.88426348	      1.19802520	     68.73032166	     68.73032166	      7.47001362	    -18.55989393	     11.61160685	    -12.44816269	      6.29990296	      3.31003720	     10.74572007	    -12.81959259	     -9.45806738	     45.56912741	     45.94111205	      0.00000000	      0.00000000	      9.66120730	     -7.36200847	     -6.71134593	     49.61919242	     47.18121711	      0.00000000	      0.00000000
     30.73928571	     -5.45293061	     -6.08765762	     -4.47017713	      1.09417733	      0.93131996	      0.51772919	     14.81486441	      4.27516715	    -16.64362769	     16.12417263	     16.12417263	      8.18830238	      8.69037874	     -1.16648404	     32.59013768	    -16.88628968	      1.32992318	     67.49479789	     67.49479789	      7.64912122	    -18.48106196	     11.34643561	    -12.44204276	      6.39820846	      3.70465576	     12.79160236	    -13.38829236	     -8.37418492	     47.16243963	     45.82986984	      0.00000000	      0.00000000	      9.89354160	     -6.88887646	     -6.51545423	     44.61322675	     47.08826950	      0.00000000	      0.00000000
